# xmcd CD database file
#
# Track frame offsets:
#	200
#	15620
#	33997
#	47802
#	77935
#	90355
#	118690
#	139650
#	156302
#
# Disc length: 2488 seconds
#
# Revision: 0
# Processed by: cddbd v1.4PL0 Copyright (c) Steve Scherf et al.
# Submitted via: CDex 1.50beta10
#
DISCID=6b09b609
DTITLE=Nappy Brown - Aw! Shucks
DYEAR=1991
DGENRE=Blues
TTITLE0=You Know It Ain't Right
TTITLE1=Let Love Take Care (Of the Rest)
TTITLE2=Aw Shucks, Baby
TTITLE3=Still Holding On
TTITLE4=It's Not What You Do
TTITLE5=Mind Your Own Business
TTITLE6=True Love
TTITLE7=Chickadee
TTITLE8=Night Time ["Live Jam" Version]
EXTD=YEAR: 1991
EXTT0=
EXTT1=
EXTT2=
EXTT3=
EXTT4=
EXTT5=
EXTT6=
EXTT7=
EXTT8=
PLAYORDER=
